<svg width="297" height="54" viewBox="0 0 297 54" fill="none" xmlns="http://www.w3.org/2000/svg">
<g clip-path="url(#clip0_309_100)">
<path d="M11.8547 29.5416C11.8194 31.5609 11.9674 33.5782 12.2967 35.5712C12.5023 36.9289 13.0915 38.2011 13.9959 39.2391C14.9047 40.1804 16.0852 40.8182 17.3746 41.0639C19.1727 41.4138 21.0037 41.5741 22.8359 41.542H27.8353C28.8175 41.542 29.9665 41.542 31.2533 41.542L35.7417 41.4445L33.8757 50.9761C31.0175 51.0637 28.7485 51.1128 27.0003 51.1128H22.1681C18.6697 51.1793 15.1773 50.7988 11.7764 49.9813C9.20416 49.369 6.8356 48.1048 4.90131 46.3131C3.06143 44.461 1.76111 42.1481 1.13925 39.6204C0.307545 36.2702 -0.0755512 32.8259 8.0532e-05 29.3761V23.6391C-0.0748097 20.2174 0.33202 16.8024 1.20821 13.4933C2.48925 8.28802 6.63713 4.25875 11.9042 3.10291C15.2624 2.28905 18.712 1.90876 22.1681 1.97136H27.2458C28.2282 1.97136 29.4554 1.97136 30.7622 1.97136C32.0689 1.97136 33.581 2.01998 35.2902 2.06884L33.4238 11.6002C31.715 11.5518 29.9371 11.5226 28.0711 11.4929H22.6486C20.8099 11.4524 18.9715 11.6127 17.1677 11.9709C15.904 12.2152 14.745 12.8382 13.8478 13.756C12.9679 14.7861 12.4054 16.046 12.2272 17.3853C11.9187 19.4055 11.7803 21.4489 11.8147 23.4925L11.8547 29.5416Z" fill="white"/>
<path d="M64.1855 22.1268C66.2503 22.4475 68.2667 23.0241 70.1864 23.8439C71.6671 24.4751 72.9892 25.4247 74.0562 26.624C75.0429 27.7769 75.7517 29.1383 76.1289 30.6047C76.5664 32.3394 76.7738 34.1235 76.7478 35.9118V36.9461C76.794 39.1004 76.4616 41.2467 75.7651 43.2876C75.1259 45.0267 74.0018 46.5494 72.5243 47.6777C70.7314 48.9575 68.6804 49.8362 66.5133 50.2533C63.4903 50.8501 60.4113 51.1249 57.33 51.0728H50.1895C48.7846 51.0728 47.1936 51.0728 45.4259 51.0728L39.3857 50.9756L41.1045 41.7851C44.7385 41.8727 47.8424 41.9221 50.3961 41.9221H57.527C58.7855 41.9419 60.0438 41.8604 61.289 41.678C62.118 41.5793 62.9176 41.3102 63.6361 40.8877C64.1954 40.5543 64.6141 40.0309 64.815 39.4147C65.0404 38.6482 65.143 37.8518 65.1196 37.0536C65.1334 36.3183 65.0775 35.5835 64.9522 34.8588C64.8531 34.304 64.5896 33.7911 64.1959 33.3855C63.7401 32.9527 63.1983 32.6205 62.6047 32.4099C61.7401 32.1118 60.8488 31.8963 59.943 31.7659L52.6156 30.4976C50.3719 30.1527 48.1719 29.5671 46.0547 28.7513C44.523 28.1565 43.1443 27.2302 42.018 26.0392C41.0182 24.9305 40.3185 23.5881 39.9846 22.1366C39.5901 20.4053 39.4055 18.633 39.4347 16.8585V15.766C39.3998 13.7715 39.733 11.7878 40.4169 9.91235C41.0605 8.21541 42.1574 6.72493 43.5892 5.60026C45.2941 4.29785 47.2606 3.37328 49.3548 2.88791C52.192 2.21939 55.1023 1.90808 58.0176 1.96111H65.5118C66.8667 1.96111 68.3401 1.96111 69.9316 1.96111C71.523 1.96111 73.3201 2.00998 75.3533 2.05859L73.6249 11.2489C70.0398 11.1615 66.9854 11.1124 64.4809 11.1124H57.8119C56.6582 11.0964 55.5052 11.1748 54.3645 11.3464C53.606 11.4512 52.8766 11.7097 52.2234 12.1074C51.7184 12.4438 51.342 12.9385 51.1531 13.5127C50.9287 14.2227 50.8222 14.9637 50.8387 15.7075C50.8318 16.3621 50.8909 17.0159 51.0157 17.6586C51.1128 18.1685 51.3506 18.6416 51.7031 19.0241C52.1225 19.4383 52.629 19.7547 53.1863 19.9509C54.0173 20.2506 54.8759 20.4694 55.7499 20.6044L64.1855 22.1268Z" fill="white"/>
<path d="M93.5926 34.478V50.9366H82.4844V2.10742H102.128C108.847 2.10742 113.656 3.29446 116.556 5.66826C119.457 8.04231 120.907 11.7914 120.907 16.9166V19.6582C120.907 24.6403 119.425 28.3578 116.458 30.8094C113.492 33.2613 108.669 34.4846 101.991 34.4775L93.5926 34.478ZM109.543 17.8928C109.573 16.7922 109.434 15.6933 109.131 14.6342C108.893 13.8436 108.425 13.1408 107.785 12.6146C107.069 12.0679 106.224 11.7119 105.33 11.5806C104.076 11.3785 102.808 11.2872 101.538 11.3073H93.5926V25.2975H101.538C102.808 25.3179 104.076 25.2263 105.33 25.0245C106.223 24.8927 107.068 24.5369 107.785 23.9902C108.425 23.4641 108.893 22.7614 109.131 21.9704C109.434 20.9118 109.573 19.8127 109.543 18.7123V17.8928Z" fill="white"/>
<path d="M206.043 4.41966L205.277 7.87296H189.562V49.9415H185.761V7.85381H169.358L170.135 4.40051L206.043 4.41966Z" fill="white"/>
<path d="M207.909 34.4488C207.879 36.4614 208.03 38.4729 208.361 40.4585C208.575 41.8299 209.129 43.1267 209.972 44.2342C210.807 45.1912 211.918 45.8725 213.154 46.185C214.872 46.6095 216.639 46.8037 218.409 46.7609C220.246 46.7609 222.033 46.7609 223.742 46.7609L229.281 46.6733L228.574 49.9317C227.111 49.9317 225.47 50.0095 223.663 50.0289H218.418C216.04 50.0868 213.667 49.7579 211.396 49.0533C209.712 48.518 208.21 47.5326 207.055 46.2044C205.947 44.8362 205.186 43.2232 204.835 41.5022C204.376 39.3601 204.159 37.1746 204.187 34.9847V30.9559C204.144 28.6536 204.415 26.3564 204.993 24.1267C205.436 22.4005 206.299 20.8089 207.507 19.4925C208.701 18.2586 210.197 17.3541 211.848 16.8683C213.876 16.2766 215.983 15.9967 218.095 16.0389C222.894 16.0389 226.358 17.0698 228.486 19.1321C230.614 21.1934 231.675 24.4655 231.669 28.9467V30.488C231.685 31.1938 231.632 31.8997 231.511 32.5954C231.437 33.0302 231.248 33.4385 230.961 33.7761C230.678 34.0697 230.305 34.262 229.9 34.3226C229.359 34.4164 228.81 34.4591 228.26 34.4495L207.909 34.4488ZM218.016 19.1706C216.456 19.1419 214.897 19.312 213.38 19.6776C212.168 19.9729 211.071 20.6181 210.227 21.5314C209.33 22.5979 208.721 23.8736 208.459 25.2391C208.054 27.239 207.869 29.2772 207.909 31.3171H228.191V29.1417C228.228 27.5257 228.033 25.913 227.612 24.3513C227.007 21.9662 225.078 20.1377 222.652 19.6489C221.132 19.303 219.575 19.1426 218.016 19.1706Z" fill="white"/>
<path d="M252.982 46.7902C254.74 46.7902 256.351 46.7902 257.804 46.7902C259.258 46.7902 260.594 46.7902 261.792 46.7026L261.085 49.9607C260.103 49.9607 258.846 50.0388 257.323 50.0582H252.982C250.625 50.1156 248.271 49.8264 245.999 49.1996C244.289 48.7155 242.735 47.7975 241.491 46.5361C240.3 45.2489 239.467 43.6752 239.075 41.9699C238.566 39.7793 238.328 37.5354 238.368 35.287V31.7357C238.318 29.4108 238.589 27.09 239.173 24.8382C239.616 23.1165 240.503 21.5393 241.746 20.2622C243.01 19.0398 244.575 18.169 246.284 17.7355C248.472 17.1833 250.725 16.924 252.983 16.9646H256.843C258.297 16.9646 259.927 17.0132 261.753 17.1013L261.047 20.3597C259.416 20.272 257.933 20.2325 256.607 20.2325H252.983C251.241 20.1996 249.502 20.3604 247.797 20.7105C246.533 20.9619 245.37 21.572 244.448 22.4664C243.545 23.4536 242.933 24.6688 242.68 25.9788C242.304 27.8737 242.136 29.8038 242.179 31.7347V35.3152C242.144 37.1497 242.315 38.9824 242.69 40.7787C242.953 42.091 243.552 43.3136 244.428 44.33C245.319 45.2831 246.469 45.9609 247.738 46.281C249.455 46.679 251.219 46.8496 252.982 46.7902Z" fill="white"/>
<path d="M269.512 49.9219V2.46838H273.245V20.0293C274.202 18.7421 275.521 17.764 277.036 17.2197C279.276 16.3749 281.664 15.9833 284.058 16.0685C285.864 16.0511 287.666 16.2305 289.431 16.6054C290.909 16.9162 292.302 17.5383 293.517 18.43C294.662 19.3268 295.551 20.508 296.09 21.8543C296.743 23.5768 297.05 25.4093 296.993 27.2496V49.9521H293.251V27.6689C293.285 26.311 293.11 24.9551 292.731 23.6495C292.437 22.6586 291.868 21.7701 291.09 21.0839C290.233 20.3977 289.223 19.9256 288.144 19.7081C286.693 19.4135 285.214 19.276 283.734 19.2984C282.341 19.2891 280.95 19.4064 279.579 19.6497C278.405 19.8505 277.281 20.2747 276.269 20.8986C275.325 21.4858 274.558 22.3152 274.049 23.2984C273.458 24.5127 273.182 25.8539 273.244 27.201V49.9619L269.512 49.9219Z" fill="white"/>
<path d="M163.072 26.8587L141.287 54.0003H128.548L150.314 26.8587L128.548 0H141.287L163.072 26.8587Z" fill="#AAFF1E"/>
</g>
<defs>
<clipPath id="clip0_309_100">
<rect width="297" height="54" fill="white"/>
</clipPath>
</defs>
</svg>
