<svg width="233" height="92" viewBox="0 0 233 92" fill="none" xmlns="http://www.w3.org/2000/svg">
<path fill-rule="evenodd" clip-rule="evenodd" d="M20.9235 24.978L8.94734 28.612C8.06194 28.888 7.54934 29.808 7.82894 30.682L8.06194 31.372H24.6981L23.0671 26.036C22.7875 25.208 21.8089 24.702 20.9235 24.978Z" fill="#F2F3F2"/>
<path fill-rule="evenodd" clip-rule="evenodd" d="M23.8128 36.7541L6.29118 40.7101C5.03298 40.9861 4.28738 42.0441 4.66018 43.0101L4.98638 43.7921H28.799L26.8418 37.9961C26.5156 36.9841 25.071 36.4321 23.8128 36.7541Z" fill="#F2F3F2"/>
<path fill-rule="evenodd" clip-rule="evenodd" d="M28.3796 49.1741L16.4034 52.8081C15.518 53.0841 15.0054 54.0041 15.285 54.8781L15.518 55.5681H32.1542L30.5232 50.2321C30.2436 49.4041 29.265 48.8981 28.3796 49.1741Z" fill="#F2F3F2"/>
<path fill-rule="evenodd" clip-rule="evenodd" d="M61.2791 20.332H86.5829C87.4683 20.332 88.2139 21.068 88.2139 21.942V33.856C88.2139 34.73 87.4683 35.466 86.5829 35.466H61.2791C60.3937 35.466 59.6481 34.73 59.6481 33.856V21.942C59.6481 21.068 60.3471 20.332 61.2791 20.332ZM49.6757 8.14205L56.4793 32.2C56.7123 33.074 56.1997 33.948 55.3609 34.178L43.7575 37.398C42.8721 37.628 41.9867 37.122 41.7537 36.294L34.9035 12.19C34.6705 11.316 35.1831 10.442 36.0219 10.212L47.6253 6.99204C48.5107 6.76204 49.3961 7.26805 49.6757 8.14205ZM74.0475 36.984H48.7437C47.8583 36.984 47.1127 37.72 47.1127 38.594V50.508C47.1127 51.382 47.8583 52.118 48.7437 52.118H74.0475C74.9329 52.118 75.6785 51.382 75.6785 50.508V38.594C75.6785 37.72 74.9795 36.984 74.0475 36.984Z" fill="#E2AB2B"/>
<path fill-rule="evenodd" clip-rule="evenodd" d="M87.7013 70.012C88.9595 71.484 89.7051 73.37 89.7051 75.44C89.7051 77.74 88.7731 79.856 87.2353 81.374C85.6975 82.892 83.6005 83.812 81.2239 83.812C78.8939 83.812 76.7503 82.892 75.2125 81.374C73.6747 79.856 72.7427 77.786 72.7427 75.44C72.7427 73.462 73.4417 71.622 74.6067 70.196H55.8735C57.0385 71.622 57.7375 73.462 57.7375 75.44C57.7375 77.74 56.8055 79.856 55.2677 81.374C53.7299 82.892 51.6329 83.812 49.2563 83.812C46.9263 83.812 44.7827 82.892 43.2449 81.374C41.7071 79.856 40.7751 77.786 40.7751 75.44C40.7751 73.462 41.4741 71.622 42.6857 70.196C41.4741 70.104 40.4023 69.322 40.0761 68.08L37.4199 59.018C37.3733 58.88 37.3267 58.696 37.2801 58.512L25.7233 18.998H12.7219C8.80753 18.998 8.80753 13.11 12.7219 13.11H27.9601C29.4047 13.11 30.6163 14.122 30.8959 15.456L42.4061 54.97H84.4393L95.0641 25.3C96.3689 21.666 101.961 23.598 100.656 27.232L89.4255 58.742C89.0527 59.984 87.9343 60.858 86.5829 60.858H44.1303L45.1555 64.308H86.6761C88.3071 64.308 89.6585 65.642 89.6585 67.252C89.6585 68.494 88.8197 69.598 87.7013 70.012ZM51.6795 73.048C51.0737 72.45 50.2349 72.082 49.2563 72.082C48.2777 72.082 47.4855 72.45 46.8331 73.048C46.2273 73.646 45.8545 74.474 45.8545 75.44C45.8545 76.36 46.2273 77.188 46.8331 77.832C47.4389 78.43 48.2777 78.798 49.2563 78.798C50.2349 78.798 51.0271 78.43 51.6795 77.832C52.2853 77.234 52.6581 76.406 52.6581 75.44C52.7047 74.474 52.2853 73.646 51.6795 73.048ZM83.6005 73.048C82.9947 72.45 82.1559 72.082 81.1773 72.082C80.2453 72.082 79.4065 72.45 78.7541 73.048C78.1483 73.646 77.7755 74.474 77.7755 75.44C77.7755 76.36 78.1483 77.188 78.7541 77.832C79.3599 78.43 80.1987 78.798 81.1773 78.798C82.1093 78.798 82.9481 78.43 83.6005 77.832C84.2063 77.234 84.5791 76.406 84.5791 75.44C84.6257 74.474 84.2529 73.646 83.6005 73.048Z" fill="#F2F3F2"/>
<path fill-rule="evenodd" clip-rule="evenodd" d="M108.625 32.844C108.625 29.348 109.837 26.45 112.213 24.15C114.59 21.85 117.572 20.7 121.16 20.7C124.795 20.7 127.824 21.85 130.201 24.15C132.577 26.45 133.789 29.348 133.789 32.844C133.789 36.294 132.577 39.146 130.201 41.446C127.824 43.746 124.795 44.85 121.16 44.85C117.572 44.85 114.59 43.7 112.213 41.446C109.837 39.192 108.625 36.294 108.625 32.844ZM116.78 32.844C116.78 34.086 117.199 35.098 117.992 35.972C118.784 36.846 119.856 37.26 121.114 37.26C122.419 37.26 123.49 36.846 124.283 35.972C125.075 35.098 125.494 34.04 125.494 32.844C125.494 31.556 125.075 30.498 124.283 29.624C123.49 28.796 122.419 28.336 121.114 28.336C119.856 28.336 118.784 28.75 117.992 29.624C117.199 30.544 116.78 31.602 116.78 32.844ZM159.233 24.242C161.19 26.45 162.168 29.302 162.168 32.798C162.168 36.294 161.19 39.146 159.233 41.4C157.275 43.654 154.712 44.758 151.59 44.758C148.981 44.758 146.884 43.884 145.299 42.182V44.344H136.771V13.11H145.299V23.414C147.07 21.758 149.167 20.93 151.59 20.93C154.712 20.93 157.229 22.034 159.233 24.242ZM153.454 32.752C153.454 31.326 153.035 30.222 152.243 29.394C151.45 28.566 150.379 28.152 149.074 28.152C147.629 28.152 146.371 28.612 145.253 29.486V36.11C146.371 36.938 147.629 37.398 149.074 37.398C150.425 37.398 151.45 36.984 152.243 36.156C153.081 35.328 153.454 34.224 153.454 32.752ZM165.617 44.252V21.298H174.145V25.116C175.636 22.31 177.826 20.884 180.575 20.884C182.206 20.884 183.651 21.252 184.909 22.034L182.719 29.486C181.414 28.888 180.063 28.612 178.711 28.612C177.546 28.612 176.568 28.934 175.776 29.532C174.983 30.13 174.424 30.912 174.145 31.832V44.252H165.617ZM188.963 29.026L187.519 22.586C190.594 21.482 193.717 20.93 196.979 20.93C200.8 20.93 203.503 21.758 205.134 23.414C206.718 25.07 207.557 27.462 207.557 30.636V44.298H199.262V42.228C197.445 43.884 195.348 44.712 192.924 44.712C190.641 44.712 188.87 44.114 187.612 42.872C186.354 41.676 185.748 40.02 185.748 37.95C185.748 35.42 186.68 33.488 188.591 32.108C190.501 30.728 193.064 30.038 196.326 30.038C197.118 30.038 198.097 30.084 199.262 30.222V30.176C199.262 29.256 199.029 28.612 198.516 28.244C198.05 27.83 197.258 27.646 196.186 27.646C193.95 27.646 191.526 28.106 188.963 29.026ZM193.903 36.984C193.903 38.41 194.695 39.146 196.326 39.146C197.258 39.146 198.19 38.824 199.215 38.226V34.684C198.703 34.592 198.237 34.546 197.771 34.546C196.652 34.546 195.767 34.776 195.021 35.19C194.276 35.604 193.903 36.202 193.903 36.984Z" fill="#E2AB2B"/>
<path fill-rule="evenodd" clip-rule="evenodd" d="M102.474 72.22L106.015 65.182C108.252 66.93 110.768 67.85 113.518 67.85C115.195 67.85 116.127 67.298 116.36 66.24C116.5 65.642 116.034 65.182 114.962 64.86L111.141 63.618C109.091 62.974 107.646 62.054 106.807 60.904C105.969 59.754 105.736 58.236 106.155 56.35C106.714 53.912 108.112 51.934 110.349 50.37C112.586 48.806 115.428 48.024 118.83 48.024C120.554 48.024 122.232 48.208 123.863 48.622C125.494 49.036 126.845 49.496 127.871 50.048L124.049 56.718C121.766 55.338 119.389 54.648 116.966 54.648C115.615 54.648 114.869 55.108 114.683 55.982C114.543 56.534 114.962 56.948 115.848 57.224L119.902 58.512C122.139 59.202 123.63 60.168 124.422 61.364C125.168 62.56 125.354 64.032 124.981 65.78C124.422 68.356 122.931 70.472 120.554 72.082C118.178 73.692 115.289 74.52 111.84 74.52C110.023 74.52 108.205 74.29 106.435 73.83C104.71 73.278 103.406 72.772 102.474 72.22ZM143.155 74.06H151.59L157.368 48.3H148.934L146.883 57.408H137.657L139.707 48.3H131.272L125.494 74.06H133.929L136.026 64.584H145.252L143.155 74.06ZM156.809 61.226C157.648 57.408 159.652 54.234 162.774 51.704C165.896 49.174 169.345 47.932 173.166 47.932C177.034 47.932 179.969 49.174 181.973 51.704C183.977 54.234 184.536 57.408 183.697 61.226C182.859 64.998 180.855 68.126 177.733 70.656C174.61 73.186 171.115 74.428 167.248 74.428C163.426 74.428 160.537 73.186 158.533 70.656C156.53 68.126 155.97 64.998 156.809 61.226ZM164.498 61.226C164.172 62.744 164.358 64.032 165.104 65.044C165.85 66.102 166.968 66.608 168.459 66.608C169.997 66.608 171.348 66.102 172.56 65.044C173.772 63.986 174.517 62.744 174.843 61.226C175.216 59.662 174.983 58.374 174.284 57.316C173.539 56.258 172.42 55.752 170.882 55.752C169.391 55.752 167.993 56.258 166.828 57.316C165.617 58.374 164.824 59.662 164.498 61.226ZM204.155 74.06L203.036 66.24L198.19 74.06H188.963L185.235 48.3H194.369L196.419 64.722L201.545 56.35L200.567 48.3H209.793L211.005 63.296L219.346 48.3H228.573L213.335 74.06H204.155Z" fill="#F2F3F2"/>
</svg>
